<?xml version="1.0" encoding="UTF-8"?>
<svg width="500" height="64" version="1.1" viewBox="0 0 500 64" xmlns="http://www.w3.org/2000/svg" xmlns:cc="http://creativecommons.org/ns#" xmlns:dc="http://purl.org/dc/elements/1.1/" xmlns:rdf="http://www.w3.org/1999/02/22-rdf-syntax-ns#">
 <metadata>
  <rdf:RDF>
   <cc:Work rdf:about="">
    <dc:format>image/svg+xml</dc:format>
    <dc:type rdf:resource="http://purl.org/dc/dcmitype/StillImage"/>
   </cc:Work>
  </rdf:RDF>
 </metadata>
 <g transform="translate(0,-36)">
  <g transform="matrix(122172 0 0 122172 -60.309 -.69477)" fill="#95de11" aria-label="zazu.">
   <path d="m5.0426e-4 4.1616e-4h2.4116e-4l-2.5177e-4 2.9132e-4v1.0515e-4h4.1287e-4v-1.0032e-4h-2.5563e-4l2.4695e-4 -2.9036e-4v-1.0611e-4h-3.9358e-4z" stroke-width="1.13e-5"/>
   <path d="m0.0010338 4.5282e-4c4.341e-5 -3.2798e-5 9.84e-5 -5.402e-5 1.5338e-4 -5.402e-5 7.621e-5 0 1.119e-4 2.701e-5 1.119e-4 1.0708e-4h-7.138e-5c-5.402e-5 0-1.1769e-4 4.8232e-6 -1.6689e-4 2.894e-5 -4.919e-5 2.4116e-5 -8.4886e-5 6.7526e-5 -8.4886e-5 1.418e-4 0 9.4536e-5 8.5856e-5 1.4759e-4 1.7364e-4 1.4759e-4 5.884e-5 0 1.2348e-4 -3.0869e-5 1.5338e-4 -8.5854e-5h1.93e-6c9.6e-7 1.5434e-5 9.6e-7 4.8232e-5 5.79e-6 7.4278e-5h1.1383e-4c-2.9e-6 -3.8586e-5 -4.83e-6 -7.3313e-5 -5.79e-6 -1.1093e-4 -9.7e-7 -3.6657e-5 -1.93e-6 -7.4278e-5 -1.93e-6 -1.2444e-4v-6.3667e-5c0-1.4663e-4 -6.27e-5 -2.0933e-4 -2.1415e-4 -2.0933e-4 -5.499e-5 0-1.2251e-4 1.447e-5 -1.7268e-4 3.7621e-5zm6.56e-5 2.1608e-4c0-7.6207e-5 8.585e-5 -8.5854e-5 1.4373e-4 -8.5854e-5h5.595e-5c0 3.8586e-5 -5.79e-6 7.4278e-5 -2.701e-5 1.0225e-4 -2.026e-5 2.701e-5 -5.112e-5 4.4374e-5 -9.068e-5 4.4374e-5 -4.63e-5 0-8.199e-5 -1.8328e-5 -8.199e-5 -6.0773e-5z" fill-opacity=".94118" stroke-width="1.13e-5"/>
   <g>
    <path d="m0.0015236 4.1616e-4h2.4116e-4l-8.074e-5 9.3419e-5 -1.7103e-4 1.979e-4v1.0515e-4h4.1287e-4v-1.0032e-4h-2.5563e-4l2.4695e-4 -2.9036e-4v-1.0611e-4h-3.9358e-4z" stroke-width="1.13e-5"/>
    <path d="m0.0024834 3.1584e-4h-1.2927e-4v2.4309e-4c0 6.3667e-5 -2.026e-5 1.6496e-4 -1.1383e-4 1.6496e-4 -8.296e-5 0-8.392e-5 -8.1995e-5 -8.392e-5 -1.4277e-4v-2.6528e-4h-1.2926e-4v3.1351e-4c0 1.119e-4 5.112e-5 1.9486e-4 1.6881e-4 1.9486e-4 6.753e-5 0 1.2347e-4 -3.0869e-5 1.6303e-4 -7.9101e-5h1.92e-6v6.7526e-5h1.2252e-4z" stroke-width="1.13e-5"/>
    <path d="m0.0025964 8.1263e-4h1.3505e-4v-1.3505e-4h-1.3505e-4z" stroke-width="1.13e-5"/>
   </g>
  </g>
  <g transform="matrix(124702 0 0 124702 -70.933 -2.0352)" fill="#2f383c" stroke-width="1e-5" aria-label="berlin">
   <path d="m0.0029455 6.3757e-4c0-4.8e-5 2.267e-5 -1.0933e-4 8e-5 -1.0933e-4 5.8e-5 0 7.4e-5 6.3334e-5 7.4e-5 1.0933e-4 0 4.7334e-5 -1.666e-5 1.1133e-4 -7.533e-5 1.1133e-4 -5.933e-5 0-7.867e-5 -6.2667e-5 -7.867e-5 -1.1133e-4zm-9e-5 1.7267e-4h8.667e-5v-4.2e-5h1.33e-6c2.6e-5 3.6667e-5 6.734e-5 5e-5 1.0534e-4 5e-5 1.0533e-4 0 1.44e-4 -8.6667e-5 1.44e-4 -1.8067e-4 0-9.4667e-5 -3.867e-5 -1.7867e-4 -1.44e-4 -1.7867e-4 -4.667e-5 0-7.8e-5 1.9333e-5 -1.0267e-4 5.2e-5h-1.33e-6v-2.0067e-4h-8.934e-5z"/>
   <path d="m0.0033264 6.049e-4c4e-6 -4.6e-5 2.933e-5 -8.0667e-5 7.933e-5 -8.0667e-5s7e-5 3.7334e-5 7.267e-5 8.0667e-5zm2.12e-4 1.1333e-4c-3.333e-5 1.8667e-5 -7.067e-5 3.4667e-5 -1.14e-4 3.4667e-5 -5.533e-5 0-9.4e-5 -3.1333e-5 -9.8e-5 -8.6667e-5h2.3733e-4c0-1.2e-4 -3.6e-5 -2.0733e-4 -1.6333e-4 -2.0733e-4 -1.0667e-4 0-1.5933e-4 8.2e-5 -1.5933e-4 1.8133e-4 0 1.1267e-4 6.6e-5 1.78e-4 1.7933e-4 1.78e-4 4.8e-5 0 8.533e-5 -9.3334e-6 1.18e-4 -2.7333e-5z"/>
   <path d="m0.0036362 8.1024e-4h8.934e-5v-1.26e-4c0-4.9334e-5 0-1.4e-4 7.266e-5 -1.4e-4 1.6e-5 0 3.2e-5 2.6667e-6 4e-5 7.3334e-6v-9e-5c-9.33e-6 -2.6667e-6 -1.866e-5 -2.6667e-6 -2.733e-5 -2.6667e-6 -5.333e-5 0-9e-5 5.4e-5 -9.4e-5 8.6e-5h-1.34e-6v-7.8e-5h-7.933e-5z"/>
   <path d="m0.0038953 8.1024e-4h8.933e-5v-5e-4h-8.933e-5z"/>
   <path d="m0.0040802 8.1024e-4h8.934e-5v-3.4334e-4h-8.934e-5zm0-4.06e-4h8.934e-5v-8.5334e-5h-8.934e-5z"/>
   <path d="m0.0042631 8.1024e-4h8.933e-5v-1.68e-4c0-4.4e-5 1.4e-5 -1.14e-4 7.867e-5 -1.14e-4 5.733e-5 0 5.8e-5 5.6667e-5 5.8e-5 9.8667e-5v1.8333e-4h8.934e-5v-2.1667e-4c0-7.7334e-5 -3.534e-5 -1.3467e-4 -1.1667e-4 -1.3467e-4 -4.667e-5 0-8.467e-5 1.5333e-5 -1.1267e-4 5.4667e-5h-1.33e-6v-4.6667e-5h-8.467e-5z"/>
  </g>
 </g>
</svg>
